<?xml version="1.0" standalone="no"?>
<!DOCTYPE svg PUBLIC "-//W3C//DTD SVG 20010904//EN"
 "http://www.w3.org/TR/2001/REC-SVG-20010904/DTD/svg10.dtd">
<svg version="1.0" xmlns="http://www.w3.org/2000/svg"
 width="226.000000pt" height="223.000000pt" viewBox="0 0 226.000000 223.000000"
 preserveAspectRatio="xMidYMid meet">

<g transform="translate(0.000000,223.000000) scale(0.100000,-0.100000)"
fill="#000000" stroke="none">
<path d="M766 1713 c-11 -11 44 -45 62 -37 15 6 14 8 -5 11 -13 3 -23 8 -23
13 0 10 -26 20 -34 13z"/>
<path d="M833 1713 c9 -2 25 -2 35 0 9 3 1 5 -18 5 -19 0 -27 -2 -17 -5z"/>
<path d="M905 1710 c3 -5 13 -10 21 -10 8 0 12 5 9 10 -3 6 -13 10 -21 10 -8
0 -12 -4 -9 -10z"/>
<path d="M1198 1645 c-2 -46 1 -79 7 -81 6 -1 42 -4 82 -6 71 -4 72 -3 75 22
3 25 4 25 95 25 118 0 127 -8 126 -102 0 -57 -4 -69 -23 -85 -12 -10 -31 -18
-41 -18 -16 0 -19 -8 -19 -47 l0 -48 -77 1 c-52 0 -59 -1 -22 -3 l55 -4 76
-142 76 -142 92 -3 c72 -2 91 0 87 10 -2 7 -41 74 -87 148 -72 119 -80 136
-65 145 93 54 115 89 115 178 0 67 -16 109 -57 153 -59 63 -78 68 -295 72
l-196 4 -4 -77z"/>
<path d="M963 1695 c0 -7 6 -11 14 -8 7 3 13 6 13 8 0 2 -6 5 -13 8 -8 3 -14
-1 -14 -8z"/>
<path d="M702 1693 c-10 -4 -7 -9 8 -20 12 -8 24 -12 27 -9 4 3 1 6 -7 6 -10
0 -10 3 0 15 10 12 10 15 -1 14 -8 0 -20 -3 -27 -6z"/>
<path d="M909 1676 c18 -10 20 -15 10 -19 -8 -3 -9 -6 -4 -6 6 0 17 4 25 9 13
9 13 11 0 20 -8 5 -24 10 -35 9 -18 0 -18 -1 4 -13z"/>
<path d="M653 1673 c-7 -2 -13 -9 -13 -15 0 -7 5 -7 13 1 8 6 17 8 20 4 4 -3
7 -1 7 5 0 13 -7 14 -27 5z"/>
<path d="M553 1633 c-35 -14 -63 -30 -63 -36 -1 -7 23 -71 52 -143 l52 -131
66 -22 c80 -25 80 -25 80 -3 -1 22 -39 92 -40 72 0 -9 6 -22 13 -29 10 -11 7
-12 -13 -6 -43 13 -50 19 -40 35 8 12 10 11 10 -5 0 -16 3 -15 15 9 18 34 19
39 3 30 -7 -5 -9 -2 -6 8 8 19 -7 43 -21 34 -6 -4 -11 -14 -11 -23 0 -13 2
-14 17 -2 14 12 14 8 -3 -21 -11 -19 -27 -36 -36 -38 -22 -4 -68 65 -68 101 0
16 -4 26 -10 22 -5 -3 -10 -2 -10 4 0 5 5 13 10 16 6 3 10 11 10 17 0 6 -6 6
-15 -2 -13 -11 -14 -10 -9 5 5 12 4 16 -3 12 -12 -8 -26 35 -14 43 4 3 10 12
13 21 4 9 19 20 34 23 27 7 77 37 59 35 -6 0 -38 -12 -72 -26z m-33 -33 c0 -5
-5 -10 -11 -10 -5 0 -7 5 -4 10 3 6 8 10 11 10 2 0 4 -4 4 -10z"/>
<path d="M797 1646 c4 -5 -11 -7 -34 -4 -29 4 -40 2 -40 -8 0 -9 8 -12 21 -9
12 3 48 9 81 13 l60 8 -47 5 c-26 2 -44 0 -41 -5z"/>
<path d="M1045 1640 c-9 -15 5 -32 20 -26 8 3 25 -4 39 -15 36 -29 32 -16 -6
20 -36 33 -43 36 -53 21z m25 -10 c0 -5 -2 -10 -4 -10 -3 0 -8 5 -11 10 -3 6
-1 10 4 10 6 0 11 -4 11 -10z"/>
<path d="M741 1605 c-18 -8 -44 -17 -57 -19 -37 -7 -44 -15 -44 -47 0 -35 -1
-34 48 -9 62 33 154 46 210 31 65 -17 117 -53 144 -101 26 -45 43 -53 34 -15
-5 18 -3 24 6 23 17 -4 17 34 1 40 -7 2 -13 -1 -13 -8 0 -6 5 -8 10 -5 6 3 10
-1 10 -9 0 -10 -6 -13 -15 -10 -8 4 -15 12 -15 19 0 7 -7 16 -16 19 -8 3 -13
10 -9 16 3 5 -8 16 -25 25 -16 8 -30 20 -30 25 0 6 -4 9 -9 8 -5 -2 -9 2 -9 7
2 25 -168 32 -221 10z"/>
<path d="M545 1600 c-3 -5 -2 -10 4 -10 5 0 13 5 16 10 3 6 2 10 -4 10 -5 0
-13 -4 -16 -10z"/>
<path d="M1010 1581 c0 -5 7 -12 16 -15 14 -5 15 -4 4 9 -14 17 -20 19 -20 6z"/>
<path d="M1140 1555 c7 -8 8 -15 4 -15 -5 0 -15 -10 -23 -22 -14 -22 -13 -22
5 -8 10 8 22 19 26 24 8 12 -1 36 -14 36 -6 0 -5 -6 2 -15z"/>
<path d="M646 1474 c-8 -20 -4 -25 11 -16 7 4 9 13 4 21 -6 10 -10 9 -15 -5z"/>
<path d="M1142 1465 c0 -16 2 -22 5 -12 2 9 2 23 0 30 -3 6 -5 -1 -5 -18z"/>
<path d="M618 1383 c7 -3 16 -2 19 1 4 3 -2 6 -13 5 -11 0 -14 -3 -6 -6z"/>
<path d="M1077 1264 c2 -23 0 -33 -7 -29 -5 3 -10 1 -10 -6 0 -7 -12 -26 -27
-41 -21 -22 -23 -28 -10 -28 9 0 17 6 17 14 0 8 4 17 9 20 5 4 7 -3 4 -14 -3
-11 -1 -20 5 -20 12 0 36 85 28 99 -10 15 14 25 55 22 21 -1 40 3 44 9 4 6
-15 10 -53 10 l-59 0 4 -36z"/>
<path d="M1108 1250 c-3 -22 -2 -27 8 -19 6 5 10 19 7 29 -7 27 -10 25 -15
-10z"/>
<path d="M1177 1255 c3 -9 -1 -23 -10 -33 -8 -9 -18 -27 -22 -40 -5 -19 -9
-21 -21 -11 -19 16 -30 4 -14 -15 10 -13 9 -19 -5 -32 -14 -15 -18 -15 -26 -3
-5 8 -9 12 -10 9 0 -3 -2 -13 -4 -23 -2 -11 1 -15 8 -10 7 4 6 -1 -2 -10 -7
-9 -17 -14 -22 -11 -5 3 -9 1 -9 -5 0 -12 -38 -26 -65 -22 -14 1 -16 -1 -7 -7
8 -6 2 -13 -23 -25 -39 -19 -59 -22 -35 -7 8 5 10 10 4 10 -6 0 -19 -9 -28
-19 -16 -17 -47 -31 -69 -30 -5 0 -15 -8 -24 -18 -8 -10 -12 -13 -9 -6 4 6 1
15 -5 18 -5 4 -8 14 -4 23 3 9 3 13 -1 9 -4 -4 -18 13 -31 39 -26 51 -29 68
-9 41 13 -17 14 -16 12 6 -1 18 -5 23 -20 19 -16 -4 -18 -1 -12 24 4 18 3 24
-2 16 -7 -11 -10 -10 -16 3 -3 9 -6 25 -6 35 0 10 -6 21 -12 23 -10 4 -10 6 0
6 6 1 12 5 12 11 0 5 -6 7 -13 4 -8 -3 -18 5 -25 18 -8 17 -11 19 -11 6 -1
-14 133 -335 144 -346 1 -1 31 11 66 27 35 16 93 42 129 58 80 37 148 101 183
175 27 57 35 108 17 108 -5 0 -7 -7 -3 -15z"/>
<path d="M660 1249 c0 -5 9 -9 20 -9 11 0 20 -5 20 -10 0 -6 6 -10 13 -9 27 3
48 -1 43 -10 -3 -5 4 -11 16 -14 21 -6 21 -6 2 12 -22 22 -114 54 -114 40z"/>
<path d="M700 1206 c0 -2 7 -7 16 -10 8 -3 12 -2 9 4 -6 10 -25 14 -25 6z"/>
<path d="M1110 1196 c0 -2 7 -7 16 -10 8 -3 12 -2 9 4 -6 10 -25 14 -25 6z"/>
<path d="M1192 1094 l3 -79 84 0 85 0 -3 70 c-1 38 -4 72 -7 74 -2 2 -40 6
-84 9 l-81 5 3 -79z"/>
<path d="M976 1141 c-10 -11 -16 -26 -13 -33 3 -8 6 -6 6 5 1 13 6 17 19 13 9
-3 24 -1 32 4 13 9 13 11 0 20 -21 13 -24 13 -44 -9z"/>
<path d="M811 1112 c-1 -30 21 -52 51 -52 17 0 19 3 9 9 -11 7 -11 9 0 14 8 3
1 4 -15 4 -24 -2 -31 3 -37 23 -7 25 -7 25 -8 2z"/>
<path d="M928 1113 c7 -3 16 -2 19 1 4 3 -2 6 -13 5 -11 0 -14 -3 -6 -6z"/>
<path d="M767 1069 c4 -13 8 -18 11 -10 2 7 -1 18 -6 23 -8 8 -9 4 -5 -13z"/>
<path d="M1000 1070 c0 -5 5 -10 10 -10 6 0 10 5 10 10 0 6 -4 10 -10 10 -5 0
-10 -4 -10 -10z"/>
<path d="M850 1033 c0 -10 4 -14 8 -8 4 6 11 13 16 18 5 4 2 7 -7 7 -10 0 -17
-8 -17 -17z"/>
<path d="M854 1005 c-10 -8 -14 -14 -9 -15 15 0 40 18 34 24 -3 3 -14 -1 -25
-9z"/>
<path d="M413 713 c-7 -5 -11 -33 -11 -71 l1 -62 42 0 c50 0 73 15 81 55 4 22
0 37 -13 52 -19 23 -80 39 -100 26z m62 -68 c0 -22 -5 -40 -12 -42 -9 -3 -13
9 -13 42 0 33 4 45 13 43 7 -3 12 -21 12 -43z"/>
<path d="M565 695 c-31 -30 -32 -69 -2 -99 20 -20 31 -23 79 -17 19 2 38 36
38 67 0 68 -68 97 -115 49z m71 -32 c12 -47 -30 -82 -46 -38 -10 26 5 65 24
65 9 0 19 -12 22 -27z"/>
<path d="M735 708 c-28 -16 -35 -28 -35 -64 0 -18 8 -38 20 -49 28 -26 111
-21 95 6 -4 5 -16 7 -29 3 -32 -8 -52 19 -40 54 7 19 17 27 34 27 33 0 33 29
0 32 -14 2 -34 -2 -45 -9z"/>
<path d="M825 710 c-4 -7 2 -14 14 -17 18 -5 21 -13 21 -59 0 -51 1 -54 25
-54 24 0 25 3 25 54 0 46 3 54 21 59 12 3 18 10 15 15 -8 13 -113 15 -121 2z"/>
<path d="M990 713 c-62 -24 -46 -129 20 -134 47 -3 57 1 68 26 34 74 -17 135
-88 108z m54 -45 c11 -18 -6 -68 -24 -68 -20 0 -33 46 -20 69 12 24 28 24 44
-1z"/>
<path d="M1117 713 c-4 -3 -7 -35 -7 -70 0 -61 1 -63 25 -63 19 0 25 5 26 23
l0 22 11 -22 c7 -14 20 -23 35 -23 26 0 29 10 11 28 -10 10 -10 17 0 32 16 26
15 45 -4 64 -15 16 -84 22 -97 9z m68 -43 c0 -7 -6 -15 -12 -17 -8 -3 -13 4
-13 17 0 13 5 20 13 18 6 -3 12 -11 12 -18z"/>
<path d="M1290 695 c-17 -21 -4 -51 30 -65 36 -15 38 -26 5 -32 -14 -3 -22 -1
-18 5 3 5 0 8 -7 5 -26 -8 -21 -26 10 -33 35 -8 80 15 80 41 0 8 -16 24 -35
35 -32 19 -39 41 -12 38 24 -3 37 1 37 11 0 16 -76 12 -90 -5z"/>
<path d="M1410 643 l0 -68 50 3 c27 2 50 8 50 14 0 5 -12 8 -27 6 -20 -2 -29
2 -31 15 -3 13 3 17 22 17 16 0 26 6 26 15 0 10 -9 13 -29 10 -24 -3 -28 0
-24 16 4 13 14 19 34 19 16 0 29 5 29 10 0 6 -22 10 -50 10 l-50 0 0 -67z"/>
<path d="M1542 641 c20 -66 21 -68 46 -62 20 6 29 18 39 51 7 23 15 51 18 61
5 14 1 19 -13 19 -21 0 -32 -18 -32 -50 0 -37 -20 -30 -26 10 -5 33 -10 40
-29 40 l-23 0 20 -69z"/>
<path d="M1668 703 c-6 -14 -1 -118 5 -120 20 -8 87 -1 87 8 0 7 -10 9 -24 7
-15 -3 -27 0 -30 7 -6 17 13 35 30 28 8 -3 14 0 14 6 0 6 -10 13 -23 16 -34 9
-30 35 5 35 15 0 28 5 28 10 0 11 -87 14 -92 3z"/>
<path d="M1790 641 c0 -64 2 -69 19 -64 12 3 21 15 23 32 l3 26 17 -32 c13
-23 23 -30 38 -26 17 5 20 14 20 69 0 57 -2 64 -20 64 -16 0 -20 -7 -21 -32
l0 -33 -16 33 c-12 22 -24 32 -40 32 -22 0 -23 -4 -23 -69z"/>
<path d="M748 433 c7 -3 16 -2 19 1 4 3 -2 6 -13 5 -11 0 -14 -3 -6 -6z"/>
<path d="M790 429 c0 -5 5 -7 10 -4 6 3 10 8 10 11 0 2 -4 4 -10 4 -5 0 -10
-5 -10 -11z"/>
<path d="M722 410 c0 -14 2 -19 5 -12 2 6 2 18 0 25 -3 6 -5 1 -5 -13z"/>
<path d="M668 403 c6 -2 18 -2 25 0 6 3 1 5 -13 5 -14 0 -19 -2 -12 -5z"/>
<path d="M921 394 c0 -11 3 -14 6 -6 3 7 2 16 -1 19 -3 4 -6 -2 -5 -13z"/>
<path d="M1188 383 c7 -3 16 -2 19 1 4 3 -2 6 -13 5 -11 0 -14 -3 -6 -6z"/>
</g>
</svg>
